PathFileType	4	(X/Y/Z)	Patient4_TMGait_0pt5_02_right_39.trc.trc
DataRate	CameraRate	NumFrames	NumMarkers	Units	OrigDataRate	OrigDataStartFrame	OrigNumFrames
76.923076923077	76.923076923077	4	33	mm	76.923076923077	1	       141
Frame#	Time	Sacral			L.Shoulder			Chest			R.Shoulder			Neck			R.ASIS			L.ASIS			R.Thigh.Superior			R.Thigh.Lateral			R.Thigh.Inferior			R.Patella			L.Thigh.Superior			L.Thigh.Lateral			L.Thigh.Inferior			L.Patella			L.Shank.Superior			L.Shank.Lateral			L.Shank.Inferior			R.Shank.Superior			R.Shank.Lateral			R.Shank.Inferior			R.Heel			R.Midfoot.Superior			R.Midfoot.Lateral			R.Toe			L.Heel			L.Midfoot.Lateral			L.Midfoot.Superior			L.Toe			L.Elbow			L.Wrist			R.Elbow			R.Wrist			
		X1	Y1	Z1	X2	Y2	Z2	X3	Y3	Z3	X4	Y4	Z4	X5	Y5	Z5	X6	Y6	Z6	X7	Y7	Z7	X8	Y8	Z8	X9	Y9	Z9	X10	Y10	Z10	X11	Y11	Z11	X12	Y12	Z12	X13	Y13	Z13	X14	Y14	Z14	X15	Y15	Z15	X16	Y16	Z16	X17	Y17	Z17	X18	Y18	Z18	X19	Y19	Z19	X20	Y20	Z20	X21	Y21	Z21	X22	Y22	Z22	X23	Y23	Z23	X24	Y24	Z24	X25	Y25	Z25	X26	Y26	Z26	X27	Y27	Z27	X28	Y28	Z28	X29	Y29	Z29	X30	Y30	Z30	X31	Y31	Z31	X32	Y32	Z32	X33	Y33	Z33	

1	50.960000000000	715.216098707170	1015.166296913502	429.210063879792	917.845748678628	1427.113319666444	234.880744189800	1008.312335813885	1361.936162870005	404.937953698494	918.949691993296	1448.348174797904	570.636789577870	914.583303780773	1496.668520857095	381.778032354754	936.491531359029	952.136938629262	555.232775066287	934.173044679881	959.229220382370	281.337138822524	1019.103034479600	781.731134474979	532.658947904723	978.505222899055	661.157668424564	606.009862176203	1071.457440313051	620.760849367244	530.801521676703	1089.793502340747	506.308329547892	554.236291233108	981.188193908204	752.897124737160	309.326833288237	893.866450330168	637.953548999332	253.926710309332	979.552747330813	561.351906749492	317.522967874406	979.906717358258	491.172756093798	328.157581738672	953.495922539990	419.308276578385	321.208268881920	864.565515016053	303.905990113697	270.961318878296	916.246148740448	194.742597722525	345.253930214706	1011.332904133699	432.499601356027	558.961092669817	887.595439894421	396.495220341620	617.110398588920	870.438469779108	288.556939909677	567.344758280404	666.665189725400	229.517976242087	536.907239482191	835.598959385782	171.292639708758	577.105035642214	725.817268792993	170.017433752309	611.137764487966	901.351204908977	59.746939099138	605.132343121676	787.714462835903	38.318993791904	387.961950154034	864.996070637130	34.769015089467	309.577435207148	946.390588280774	96.573018894234	338.581917631528	1076.201359719696	46.302214510570	317.181850925204	956.685073080433	1076.921807021302	111.678105370549	1108.604005683480	863.723779859750	108.439241646410	858.106678023107	1108.937966353182	698.629366717008	939.036870874502	858.532013742452	699.437998508423	
2	50.973000000000	714.212975508328	1015.724181231312	428.242885802826	919.046731456036	1427.358958110008	234.649596093220	1008.009446326786	1362.284055245296	405.497785230122	917.214619484659	1448.797195573518	570.394842525203	914.425001952769	1497.030578396314	381.484959396575	934.987929771176	953.060741110671	555.290928772905	933.960380773390	959.583152999985	281.498769765989	1019.272733646711	784.700228937722	532.082017047405	980.964242113454	663.760486663415	605.769534065857	1073.766135982723	624.449342819378	530.032675777171	1094.416605434684	511.128738092164	553.584615179195	978.825068217378	752.089848426886	310.463444098728	890.873251202301	637.959284568325	254.198303116461	974.984323786023	560.569343896430	318.649467219203	974.494547948104	490.580143671095	329.358727450789	948.062959125834	419.002873105347	322.055681084991	859.180760254305	303.845293761815	271.163704085746	909.909006065876	194.533865954107	345.764144959325	1018.856073768009	435.219321440396	559.039797193136	897.607857072118	394.283959837712	618.495348914040	884.366032694062	285.797344914267	569.007042154448	683.403566253124	218.636743030521	540.740070542490	854.480029537238	167.184762938022	579.105581794406	745.429039144590	161.631049667930	614.342067069256	924.763836607875	58.457646231529	606.495561417192	780.776592292967	38.301197976382	388.000345406954	858.067828151626	34.767091708573	309.641682488594	939.503104974019	96.499185691794	338.739140825068	1069.305150011733	46.147269222968	317.207905978120	962.332164624953	1078.471189713496	110.568742842788	1123.089811369793	872.518848265239	107.415888940462	845.181900655475	1112.625577258920	698.241993953038	911.046742822851	859.562451037878	703.617441647921	
3	50.986000000000	713.225574746554	1016.261512656930	427.288100990503	920.249610767942	1427.578313599220	234.453584570254	1007.718687815211	1362.605481428460	406.084937278591	915.507462242418	1449.227446697911	570.180427656673	914.287282924940	1497.364941175040	381.226951150998	933.485191705353	953.943584045081	555.377817766197	933.754404803692	959.913660285967	281.687817114318	1019.366438616159	787.551580612520	531.532840984996	983.255299140387	666.250910593945	605.537928135328	1075.877234696453	627.963407322015	529.284821722205	1098.780094373390	515.822104245918	552.973508858221	976.502225852569	751.282213008099	311.614458592841	887.914642187284	637.959935141581	254.460762276607	970.451637696876	559.789693131331	319.766879127171	969.123364159001	489.988172201343	330.546287420222	942.672070468791	418.691233148675	322.892270201679	853.843207642183	303.778911556148	271.358187825787	903.607635070336	194.320912619636	346.275374849693	1026.190016606116	437.818527559873	559.149415981405	907.529875411596	391.873065861572	619.901051638144	898.324316685319	282.867275720156	570.680263128224	700.340497028040	207.438065566377	544.564740058983	873.508968502240	162.947482109200	581.107180004410	765.254461465252	153.029186029597	617.541395982954	948.379448501841	57.163361558796	607.854294752839	773.892045698492	38.279884222156	388.038051796707	851.188998472166	34.764053513919	309.703798749552	932.662202110059	96.425656421903	338.896427901682	1062.458463519523	45.997285934102	317.235209049029	967.837000633425	1079.986627097299	109.473832628952	1137.341901267293	881.338682281373	106.443611089715	832.409323592467	1116.347788059134	697.843930421356	883.441092366200	860.846496556985	707.698312822839	
4	50.999000000000	712.275246848116	1016.754821467946	426.361765824336	921.459453141175	1427.746531218397	234.336294513308	1007.457251370158	1362.868553933053	406.731301480973	913.867742439527	1449.614318060407	570.029506934808	914.194774848941	1497.642027374169	381.048475105305	931.989010178718	954.735607974725	555.527802507109	933.567764706055	960.194398565237	281.932280738873	1019.282061414725	790.120758785760	531.061980396043	985.152284395940	668.489006707766	605.352975031347	1077.541395228672	631.092433976318	528.607173676360	1102.566880930950	520.232972572089	552.447843459905	974.258587542693	750.472176415148	312.793039406611	885.035684961676	637.944340305596	254.712775104992	966.004709413745	559.013268690825	320.867880240480	963.850726700603	489.392164506304	331.706757871546	937.376279307136	418.361378772889	323.709653037357	848.599904554873	303.700293843302	271.542021544966	897.377996819386	194.097108649644	346.786974842535	1033.095800965339	440.182397762610	559.319479366722	917.263660564119	389.104940310050	621.348745445973	912.329564627977	279.683544595685	572.362261466393	717.723286689808	195.742437335704	548.338536406079	892.833507968696	158.561957824302	583.088771204252	785.529712873225	144.121551195273	620.692249887681	972.366596128173	55.981209460904	609.173506537170	767.096703943654	38.254116940127	388.074302213108	844.396205029486	34.759785408392	309.761906566504	925.903079359766	96.352217380774	339.054337689929	1055.697709512428	45.855209970963	317.264909954374	973.063358421771	1081.436581371450	108.415392160444	1151.101582736148	890.205727868587	105.587067781854	819.973110918598	1120.123079428367	697.430118500189	856.659593285475	862.597777804794	711.571821000336	
